<svg width="628" height="628" viewBox="0 0 628 628" fill="none" xmlns="http://www.w3.org/2000/svg">
<g clip-path="url(#clip0_49_82)">
<path d="M278.882 473.172C278.441 507.621 319.529 502.74 309.136 562.62C309.136 562.62 336.751 548.804 331.792 506.447C330.04 491.88 334.123 481.034 334.123 481.034C338.155 479.979 344.532 490.201 342.328 506.048C342.328 506.048 356.792 492.264 356.75 474.629C356.707 456.994 349.938 438.329 349.938 438.329C366.612 442.847 364.962 471.471 364.962 471.471C364.962 471.471 375.455 453.437 375.374 419.511C375.311 393.208 351.82 351.044 314.085 351.209C276.348 351.375 246.1 388.512 246.253 421.614C246.287 436.111 250.219 454.783 258.538 465.001C258.538 465.001 257.347 436.085 268.634 437.477C268.634 437.477 259.384 475.236 269.14 492.549C269.214 492.474 273.877 473.707 278.882 473.172Z" fill="url(#paint0_linear_49_82)"/>
<path d="M278.874 499.103C267.951 524.76 295.159 528.281 295.197 544.123C295.197 544.123 299.94 527.821 288.481 516.715C279.118 507.695 278.874 499.103 278.874 499.103Z" fill="url(#paint1_linear_49_82)"/>
<path d="M336.677 548.133C340.849 542.892 335.043 521.311 348.025 512.761C348.025 512.761 352.491 536.438 336.677 548.133Z" fill="url(#paint2_linear_49_82)"/>
<path opacity="0.5" d="M366.958 462.722C370.526 454.792 375.498 440.209 375.374 419.51C375.318 396.346 351.977 353.882 314.091 354.049C277.029 354.138 248.346 390.448 248.421 421.683C248.447 432.891 250.949 447.308 256.352 457.457C256.711 451.105 257.961 442.36 261.686 437.718C263.622 435.321 266.087 434.344 268.778 434.637L271.467 434.928L270.654 438.294C270.58 438.667 263.551 468.051 268.75 485.599C270.827 479.168 274.244 470.939 278.577 470.481L281.042 470.251L281.05 473.389C280.931 486.242 287.075 493.103 294.342 500.931C304.682 512.265 316.294 525.015 312.113 557.53C319.199 552.059 333.063 537.379 329.553 506.9C327.722 491.66 331.88 480.293 332.028 479.843L332.549 478.572L333.593 478.27C335.61 477.743 337.855 478.783 339.803 481.17C342.501 484.452 344.832 490.648 345.002 499.166C349.025 493.926 354.533 484.946 354.508 474.634C354.468 457.746 347.998 439.677 347.923 439.453L346.042 434.302L350.38 435.488C361.595 438.598 365.886 451.815 366.958 462.722Z" fill="url(#paint3_linear_49_82)"/>
<path d="M295.197 544.123C296.146 534.78 293.2 521.262 288.481 516.715C284.137 512.541 279.337 505.378 278.874 499.103C271.52 517.428 281.923 524.204 287.833 526.805C290.45 527.919 295.024 534.409 295.197 544.123Z" fill="url(#paint4_radial_49_82)"/>
<path d="M317.77 546.758C334.057 514.363 312.828 480.264 323.615 459.838C334.476 439.338 345.506 458.217 346.284 471.068C346.284 471.068 346.11 429.596 329.93 413.344C313.825 397.018 360.909 400.492 367.383 420.353C367.383 420.353 367.225 353.848 314.095 354.05C260.966 354.252 252.222 416.071 252.222 416.071C252.222 416.071 271.525 395.026 284.417 411.435C284.417 411.435 274.83 432.905 272.416 454.954C272.416 454.954 279.055 449.633 289.296 451.626C289.296 451.626 283.692 482.577 295.297 492.636C310.348 505.528 323.051 536.359 317.77 546.758Z" fill="url(#paint5_linear_49_82)"/>
<path d="M313.714 508.732C322.198 494.513 305.521 457.937 322.972 443.399C332.593 435.381 338.22 445.006 338.22 445.006C338.22 445.006 335.57 430.143 325.226 417.016C314.883 403.889 340.694 385.892 361.897 408.933C361.897 408.933 354.516 353.579 305.37 362.963C251.218 373.33 255.301 424.506 255.301 424.506C255.301 424.506 269.951 395.104 290.908 409.103C290.908 409.103 277.812 432.447 277.844 445.898C277.844 445.898 286.72 439.226 296.898 445.628C296.898 445.628 292.19 476.725 297.955 481.419C311.732 492.595 313.714 508.732 313.714 508.732Z" fill="url(#paint6_linear_49_82)"/>
<path opacity="0.5" d="M278.882 473.172C278.441 507.621 319.529 502.74 309.136 562.62C309.136 562.62 336.751 548.804 331.792 506.447C330.04 491.88 334.123 481.034 334.123 481.034C338.155 479.979 344.532 490.201 342.328 506.048C342.328 506.048 356.792 492.264 356.75 474.629C356.707 456.994 349.938 438.329 349.938 438.329C366.612 442.847 364.962 471.471 364.962 471.471C364.962 471.471 375.455 453.437 375.374 419.511C375.311 393.208 351.82 351.044 314.085 351.209C276.348 351.375 246.1 388.512 246.253 421.614C246.287 436.111 250.219 454.783 258.538 465.001C258.538 465.001 257.347 436.085 268.634 437.477C268.634 437.477 259.384 475.236 269.14 492.549C269.214 492.474 273.877 473.707 278.882 473.172Z" fill="url(#paint7_radial_49_82)"/>
<path opacity="0.5" d="M278.882 473.172C278.441 507.621 319.529 502.74 309.136 562.62C309.136 562.62 336.751 548.804 331.792 506.447C330.04 491.88 334.123 481.034 334.123 481.034C338.155 479.979 344.532 490.201 342.328 506.048C342.328 506.048 356.792 492.264 356.75 474.629C356.707 456.994 349.938 438.329 349.938 438.329C366.612 442.847 364.962 471.471 364.962 471.471C364.962 471.471 375.455 453.437 375.374 419.511C375.311 393.208 351.82 351.044 314.085 351.209C276.348 351.375 246.1 388.512 246.253 421.614C246.287 436.111 250.219 454.783 258.538 465.001C258.538 465.001 257.347 436.085 268.634 437.477C268.634 437.477 259.384 475.236 269.14 492.549C269.214 492.474 273.877 473.707 278.882 473.172Z" fill="url(#paint8_radial_49_82)"/>
<path d="M372.197 433.942C370.992 398.749 348.099 356.734 312.53 356.819C276.961 356.904 259.291 404.622 258.236 432.496C258.236 432.496 264.923 416.041 279.86 412.717C294.797 409.393 278.893 445.599 289.48 467.019C289.48 467.019 298.656 429.784 311.88 428.333C325.103 426.881 336.374 452.859 336.407 466.907C336.407 466.907 344.492 441.706 342.427 421.759C339.216 391.279 372.197 433.942 372.197 433.942Z" fill="url(#paint9_radial_49_82)"/>
<path opacity="0.5" d="M278.882 473.172C278.441 507.621 319.529 502.74 309.136 562.62C309.136 562.62 336.751 548.804 331.792 506.447C330.04 491.88 334.123 481.034 334.123 481.034C338.155 479.979 344.532 490.201 342.328 506.048C342.328 506.048 356.792 492.264 356.75 474.629C356.707 456.994 349.938 438.329 349.938 438.329C366.612 442.847 364.962 471.471 364.962 471.471C364.962 471.471 375.455 453.437 375.374 419.511C375.311 393.208 351.82 351.044 314.085 351.209C276.348 351.375 246.1 388.512 246.253 421.614C246.287 436.111 250.219 454.783 258.538 465.001C258.538 465.001 257.347 436.085 268.634 437.477C268.634 437.477 259.384 475.236 269.14 492.549C269.214 492.474 273.877 473.707 278.882 473.172Z" fill="url(#paint10_radial_49_82)"/>
<path opacity="0.5" d="M278.874 499.103C267.951 524.76 295.159 528.281 295.197 544.123C295.197 544.123 299.94 527.821 288.481 516.715C279.118 507.695 278.874 499.103 278.874 499.103Z" fill="url(#paint11_radial_49_82)"/>
<path d="M336.671 548.128C340.843 542.887 338.038 526.379 348.019 512.755C348.019 512.755 352.485 536.433 336.671 548.128Z" fill="url(#paint12_radial_49_82)"/>
<path opacity="0.5" d="M336.677 548.133C340.849 542.892 335.043 521.311 348.025 512.761C348.025 512.761 352.491 536.438 336.677 548.133Z" fill="url(#paint13_radial_49_82)"/>
<path opacity="0.5" d="M278.882 473.172C278.441 507.621 319.529 502.74 309.136 562.62C309.136 562.62 336.751 548.804 331.792 506.447C330.04 491.88 334.123 481.034 334.123 481.034C338.155 479.979 344.532 490.201 342.328 506.048C342.328 506.048 356.792 492.264 356.75 474.629C356.707 456.994 349.938 438.329 349.938 438.329C366.612 442.847 364.962 471.471 364.962 471.471C364.962 471.471 375.455 453.437 375.374 419.511C375.311 393.208 351.82 351.044 314.085 351.209C276.348 351.375 246.1 388.512 246.253 421.614C246.287 436.111 250.219 454.783 258.538 465.001C258.538 465.001 257.347 436.085 268.634 437.477C268.634 437.477 259.384 475.236 269.14 492.549C269.214 492.474 273.877 473.707 278.882 473.172Z" fill="url(#paint14_radial_49_82)"/>
<path opacity="0.25" d="M278.882 473.172C278.441 507.621 319.529 502.74 309.136 562.62C309.136 562.62 336.751 548.804 331.792 506.447C330.04 491.88 334.123 481.034 334.123 481.034C338.155 479.979 344.532 490.201 342.328 506.048C342.328 506.048 356.792 492.264 356.75 474.629C356.707 456.994 349.938 438.329 349.938 438.329C366.612 442.847 364.962 471.471 364.962 471.471C364.962 471.471 375.455 453.437 375.374 419.511C375.311 393.208 351.82 351.044 314.085 351.209C276.348 351.375 246.1 388.512 246.253 421.614C246.287 436.111 250.219 454.783 258.538 465.001C258.538 465.001 257.347 436.085 268.634 437.477C268.634 437.477 259.384 475.236 269.14 492.549C269.214 492.474 273.877 473.707 278.882 473.172Z" fill="url(#paint15_radial_49_82)"/>
<path opacity="0.75" d="M278.882 473.172C278.441 507.621 319.529 502.74 309.136 562.62C309.136 562.62 336.751 548.804 331.792 506.447C330.04 491.88 334.123 481.034 334.123 481.034C338.155 479.979 344.532 490.201 342.328 506.048C342.328 506.048 356.792 492.264 356.75 474.629C356.707 456.994 349.938 438.329 349.938 438.329C366.612 442.847 364.962 471.471 364.962 471.471C364.962 471.471 375.455 453.437 375.374 419.511C375.311 393.208 351.82 351.044 314.085 351.209C276.348 351.375 246.1 388.512 246.253 421.614C246.287 436.111 250.219 454.783 258.538 465.001C258.538 465.001 257.347 436.085 268.634 437.477C268.634 437.477 259.384 475.236 269.14 492.549C269.214 492.474 273.877 473.707 278.882 473.172Z" fill="url(#paint16_radial_49_82)"/>
<path d="M402.995 315.057C384.578 300.158 370.702 278.595 363.469 253.802L361.133 245.962L346.358 317.286L368.773 346.748L368.179 379.705C385.839 390.124 399.771 403.69 399.771 403.69C411.168 357.931 402.995 315.057 402.995 315.057Z" fill="url(#paint17_linear_49_82)"/>
<path d="M399.919 403.686C399.919 403.686 385.912 389.894 368.328 379.7L368.594 365.8C375.549 368.398 390.585 374.864 403.538 385.667C402.505 391.5 401.474 397.63 399.919 403.686Z" fill="url(#paint18_linear_49_82)"/>
<path opacity="0.75" d="M402.995 315.057C384.578 300.158 370.702 278.595 363.469 253.802L361.133 245.962L346.358 317.286L368.773 346.748L368.179 379.705C385.839 390.124 399.771 403.69 399.771 403.69C411.168 357.931 402.995 315.057 402.995 315.057Z" fill="url(#paint19_radial_49_82)"/>
<path d="M372.186 276.045C368.732 269.028 365.725 261.563 363.464 253.797L362.184 249.392C361.586 249.544 360.989 249.693 360.392 249.845L346.505 317.28L361.571 337.196C366.996 324.106 372.325 303.17 372.186 276.045Z" fill="url(#paint20_linear_49_82)"/>
<path d="M260.431 258.156C258.935 257.562 257.961 257.042 256.616 256.446C248.228 280.155 232.286 300.518 211.546 314.766C211.546 314.766 202.756 357.604 216.989 403.526C216.989 403.526 233.173 390.112 253.997 379.824L252.721 346.798L276.867 319.54C269.65 300.876 262.725 280.12 260.431 258.156Z" fill="url(#paint21_linear_49_82)"/>
<path d="M216.914 403.45C216.914 403.45 233.097 390.036 253.921 379.748L253.364 365.626C245.076 368.262 227.829 374.654 212.462 385.452C213.598 391.353 215.032 397.402 216.914 403.45Z" fill="url(#paint22_linear_49_82)"/>
<path opacity="0.75" d="M260.431 258.156C258.935 257.562 257.961 257.042 256.616 256.446C248.228 280.155 232.286 300.518 211.546 314.766C211.546 314.766 202.756 357.604 216.989 403.526C216.989 403.526 233.173 390.112 253.997 379.824L252.721 346.798L276.867 319.54C269.65 300.876 262.725 280.12 260.431 258.156Z" fill="url(#paint23_radial_49_82)"/>
<path d="M256.54 256.368C255.072 267.431 254.493 306.065 266.136 331.369L276.644 319.463C269.575 300.948 264.141 278.094 261.845 256.132L256.54 256.368Z" fill="url(#paint24_linear_49_82)"/>
<path d="M259.66 245.906C277.156 250.048 296.739 251.944 316.091 251.674C316.988 251.672 317.959 251.595 318.856 251.592C335.07 251.179 351.057 249.199 365.77 245.651C365.765 244.008 365.837 242.438 365.832 240.794C365.719 193.718 361.609 162.343 350.767 128.144C326.164 120.357 298.666 120.422 274.1 128.327C263.421 162.577 259.461 193.822 259.574 241.048C259.578 242.693 259.582 244.336 259.66 245.906Z" fill="url(#paint25_linear_49_82)"/>
<path d="M350.687 128.218C335.929 81.7747 317.439 67.3958 312.208 67.4083C306.977 67.4208 288.629 81.8131 274.02 128.401C298.586 120.496 326.084 120.431 350.687 128.218Z" fill="url(#paint26_linear_49_82)"/>
<path d="M312.966 352.781C329.856 352.74 343.824 351.138 345.911 349.04C356.533 321.74 365.188 285.179 365.767 245.647C351.127 249.12 335.067 251.176 318.852 251.589C317.955 251.591 316.984 251.668 316.087 251.67C296.735 251.94 277.152 250.044 259.656 245.902C260.424 285.429 269.403 322.098 280.155 349.347C282.775 351.358 296.454 352.895 312.966 352.781Z" fill="url(#paint27_linear_49_82)"/>
<path opacity="0.75" d="M312.966 352.781C329.856 352.74 343.824 351.138 345.911 349.04C356.533 321.74 365.188 285.179 365.767 245.647C351.127 249.12 335.067 251.176 318.852 251.589C317.955 251.591 316.984 251.668 316.087 251.67C296.735 251.94 277.152 250.044 259.656 245.902C260.424 285.429 269.403 322.098 280.155 349.347C282.775 351.358 296.454 352.895 312.966 352.781Z" fill="url(#paint28_radial_49_82)"/>
<path opacity="0.5" d="M318.853 251.588C317.956 251.591 316.984 251.668 316.088 251.67C296.735 251.94 277.152 250.044 259.656 245.902C259.659 246.948 259.736 247.919 259.813 248.891C299.147 260.902 365.163 243.705 346.514 288.362C334.33 317.682 335.124 337.11 339.117 351.074C342.778 350.542 345.241 349.714 345.987 348.964C356.608 321.665 365.262 285.104 365.841 245.572C351.053 249.195 335.067 251.176 318.853 251.588Z" fill="url(#paint29_radial_49_82)"/>
<path d="M312.966 352.783C296.527 352.822 282.848 351.285 280.154 349.349L273.693 366.178C273.699 368.868 291.265 371.142 313.01 371.015C334.68 370.965 352.309 368.68 352.303 365.99L345.911 349.043C343.824 351.14 329.854 352.743 312.966 352.783Z" fill="url(#paint30_linear_49_82)"/>
<path d="M312.966 352.783C296.527 352.822 282.848 351.285 280.154 349.349L273.693 366.178C273.699 368.868 291.265 371.142 313.01 371.015C334.68 370.965 352.309 368.68 352.303 365.99L345.911 349.043C343.824 351.14 329.854 352.743 312.966 352.783Z" fill="url(#paint31_linear_49_82)"/>
<path d="M353.48 137.403C353.404 137.03 350.844 128.517 350.693 128.219C326.09 120.432 298.59 120.498 274.025 128.403C273.951 128.777 273.803 129.075 273.729 129.45C298.671 122.515 337.01 124.74 353.48 137.403Z" fill="url(#paint32_linear_49_82)"/>
<path opacity="0.75" d="M312.211 67.4061C306.98 67.4186 288.632 81.8095 274.023 128.399C263.344 162.649 259.385 193.893 259.497 241.12C259.502 242.763 259.579 244.333 259.584 245.976C260.351 285.504 269.332 322.173 280.082 349.422C282.776 351.357 296.455 352.894 312.895 352.856C329.782 352.815 343.752 351.213 345.84 349.115C356.461 321.814 365.115 285.252 365.693 245.722C365.69 244.078 365.761 242.508 365.757 240.865C365.643 193.788 361.533 162.413 350.691 128.214C336.008 81.6964 317.516 67.3188 312.211 67.4061Z" fill="url(#paint33_radial_49_82)"/>
<path d="M333.132 408.932C337.88 363.562 334.866 321.349 334.788 320.228L327.016 320.247C327.016 320.247 328.987 363.06 326.108 408.948L333.132 408.932Z" fill="url(#paint34_linear_49_82)"/>
<path d="M326.939 320.321C322.799 307.105 319.54 288.507 317.621 266.916C317.173 266.916 316.724 266.918 316.201 266.993C315.728 287.844 314.355 307.648 312.979 325.212L318.2 352.474L317.979 385.504C322.413 395.73 325.957 409.098 325.957 409.098C328.911 363.134 326.939 320.321 326.939 320.321Z" fill="url(#paint35_linear_49_82)"/>
<path d="M326.886 392.58C326.886 392.58 322.139 376.227 318.173 373.323L318.126 385.503C322.56 395.729 326.103 409.097 326.103 409.097C326.389 403.417 326.6 397.961 326.886 392.58Z" fill="url(#paint36_linear_49_82)"/>
<path d="M334.791 320.231C328.033 306.947 324.178 288.35 321.435 266.686C320.165 266.763 318.97 266.766 317.701 266.844C319.62 288.435 322.877 307.034 327.019 320.251C327.019 320.251 328.989 363.063 326.11 408.951L333.209 408.86C337.957 363.042 334.791 320.231 334.791 320.231Z" fill="url(#paint37_linear_49_82)"/>
<path d="M333.132 408.932C337.88 363.562 334.866 321.349 334.788 320.228L327.016 320.247C327.016 320.247 328.987 363.06 326.108 408.948L333.132 408.932Z" fill="url(#paint38_linear_49_82)"/>
<path opacity="0.75" d="M326.939 320.321C322.799 307.105 319.54 288.507 317.621 266.916C317.173 266.916 316.724 266.918 316.201 266.993C315.728 287.844 314.355 307.648 312.979 325.212L318.2 352.474L317.979 385.504C322.413 395.73 325.957 409.098 325.957 409.098C328.911 363.134 326.939 320.321 326.939 320.321Z" fill="url(#paint39_radial_49_82)"/>
<path opacity="0.75" d="M312.211 67.4061C306.98 67.4186 288.632 81.8095 274.023 128.399C263.344 162.649 259.385 193.893 259.497 241.12C259.502 242.763 259.579 244.333 259.584 245.976C260.351 285.504 269.332 322.173 280.082 349.422C282.776 351.357 296.455 352.894 312.895 352.856C329.782 352.815 343.752 351.213 345.84 349.115C356.461 321.814 365.115 285.252 365.693 245.722C365.69 244.078 365.761 242.508 365.757 240.865C365.643 193.788 361.533 162.413 350.691 128.214C336.008 81.6964 317.516 67.3188 312.211 67.4061Z" fill="url(#paint40_radial_49_82)"/>
<g opacity="0.16">
<path opacity="0.16" d="M365.798 227.34C350.115 231.413 331.962 233.774 312.609 233.894C293.329 233.941 275.166 231.668 259.389 227.596" stroke="black" stroke-width="16.6667" stroke-miterlimit="10" stroke-linecap="round" stroke-linejoin="round"/>
<path opacity="0.16" d="M341.618 144.832C346.625 145.343 351.335 146.005 355.97 146.74" stroke="black" stroke-width="16.6667" stroke-miterlimit="10" stroke-linecap="round" stroke-linejoin="round"/>
<g opacity="0.16">
<path opacity="0.16" d="M295.68 123.272C295.385 124.917 295.165 126.636 294.946 128.354C290.095 162.591 288.302 193.905 288.415 240.982C288.419 242.625 288.423 244.27 288.502 245.838C288.58 247.408 288.509 248.977 288.587 250.547" stroke="black" stroke-width="16.6667" stroke-miterlimit="10" stroke-linecap="round" stroke-linejoin="round"/>
</g>
<path opacity="0.16" d="M348.622 230.973C348.147 189.204 345.313 159.992 338.436 128.251C338.209 126.982 337.907 125.787 337.606 124.591" stroke="black" stroke-width="16.6667" stroke-miterlimit="10" stroke-linecap="round" stroke-linejoin="round"/>
</g>
<path opacity="0.75" d="M335.299 349.065C342.408 321.848 348.224 285.144 348.577 245.687L335.299 349.065Z" fill="url(#paint41_radial_49_82)"/>
<path d="M324.594 184.699C323.891 203.082 309.803 217.389 293.136 216.608C276.47 215.825 263.581 200.163 264.283 181.78C264.988 163.395 279.076 149.089 295.742 149.871C312.407 150.653 325.297 166.315 324.594 184.699Z" fill="url(#paint42_linear_49_82)"/>
<path d="M315.548 183.896C314.986 198.992 303.433 210.751 289.757 210.111C276.08 209.472 265.438 196.645 266.074 181.474C266.637 166.377 278.191 154.618 291.866 155.258C305.469 155.972 316.11 168.8 315.548 183.896Z" fill="url(#paint43_linear_49_82)"/>
<path d="M311.74 183.832C311.249 197.359 300.887 207.771 288.78 207.202C276.598 206.559 267.156 195.223 267.646 181.697C268.137 168.17 278.499 157.758 290.606 158.327C302.713 158.896 312.23 170.306 311.74 183.832Z" fill="url(#paint44_radial_49_82)"/>
<path opacity="0.5" d="M311.74 183.832C311.249 197.359 300.887 207.771 288.78 207.202C276.598 206.559 267.156 195.223 267.646 181.697C268.137 168.17 278.499 157.758 290.606 158.327C302.713 158.896 312.23 170.306 311.74 183.832Z" fill="url(#paint45_radial_49_82)"/>
<path opacity="0.5" d="M294.06 164.449C299.59 164.735 304.678 166.964 308.795 170.467C305.117 163.527 298.455 158.685 290.609 158.33C278.427 157.686 268.14 168.173 267.648 181.7C267.652 183.045 267.655 184.389 267.808 185.734C270.916 172.874 281.655 163.881 294.06 164.449Z" fill="black"/>
<path d="M290.609 158.33C278.427 157.686 268.14 168.173 267.648 181.7C267.158 195.226 276.601 206.562 288.782 207.205C290.053 207.277 291.098 207.125 290.427 207.201C280.115 207.225 271.044 195.067 271.012 181.765C270.986 171.006 279.326 158.73 290.609 158.33Z" fill="url(#paint46_linear_49_82)"/>
<path opacity="0.5" d="M290.607 158.326C279.25 158.652 270.91 171.077 270.936 181.688C270.967 194.391 279.289 206.102 289.006 207.125C290.051 206.824 291.024 207.195 290.351 207.272C289.903 207.272 289.454 207.274 289.006 207.125C288.932 207.2 288.782 207.2 288.707 207.276C300.888 207.92 311.176 197.433 311.667 183.906C312.232 170.305 302.863 158.895 290.607 158.326Z" fill="url(#paint47_radial_49_82)"/>
<path d="M350.612 127.843C326.009 120.056 298.734 120.046 274.168 127.951" stroke="#008EE6" stroke-width="25" stroke-miterlimit="10" stroke-linecap="round" stroke-linejoin="round"/>
<path d="M365.767 245.648C351.127 249.121 335.067 251.177 318.852 251.589C317.955 251.591 316.984 251.669 316.087 251.671C296.735 251.94 277.152 250.045 259.656 245.902" stroke="#008EE6" stroke-width="25" stroke-miterlimit="10" stroke-linecap="round" stroke-linejoin="round"/>
</g>
<defs>
<linearGradient id="paint0_linear_49_82" x1="300.136" y1="345.63" x2="338.894" y2="621.614" gradientUnits="userSpaceOnUse">
<stop stop-color="#FF0000"/>
<stop offset="0.2317" stop-color="#FF1500"/>
<stop offset="0.7367" stop-color="#FF3D00"/>
<stop offset="0.9987" stop-color="#FF4C00"/>
</linearGradient>
<linearGradient id="paint1_linear_49_82" x1="262.523" y1="353.797" x2="300.813" y2="626.454" gradientUnits="userSpaceOnUse">
<stop stop-color="#FF0000"/>
<stop offset="0.2317" stop-color="#FF1500"/>
<stop offset="0.7367" stop-color="#FF3D00"/>
<stop offset="0.9987" stop-color="#FF4C00"/>
</linearGradient>
<linearGradient id="paint2_linear_49_82" x1="315.584" y1="339.627" x2="354.86" y2="619.314" gradientUnits="userSpaceOnUse">
<stop stop-color="#FF0000"/>
<stop offset="0.2317" stop-color="#FF1500"/>
<stop offset="0.7367" stop-color="#FF3D00"/>
<stop offset="0.9987" stop-color="#FF4C00"/>
</linearGradient>
<linearGradient id="paint3_linear_49_82" x1="301.304" y1="393.83" x2="384.446" y2="629.466" gradientUnits="userSpaceOnUse">
<stop stop-color="#FF8000"/>
<stop offset="0.6388" stop-color="#FF5B00"/>
<stop offset="0.9987" stop-color="#FF4C00"/>
</linearGradient>
<radialGradient id="paint4_radial_49_82" cx="0" cy="0" r="1" gradientUnits="userSpaceOnUse" gradientTransform="translate(275.653 586.658) rotate(179.863) scale(87.4015 110.986)">
<stop offset="0.00134333" stop-color="#FFED1C" stop-opacity="0.6"/>
<stop offset="0.9477" stop-color="#FFED1C" stop-opacity="0.0264782"/>
<stop offset="0.9914" stop-color="#FFED1C" stop-opacity="0"/>
</radialGradient>
<linearGradient id="paint5_linear_49_82" x1="334.375" y1="550.728" x2="303.968" y2="382.497" gradientUnits="userSpaceOnUse">
<stop stop-color="#FF8000"/>
<stop offset="0.022669" stop-color="#FE7F02" stop-opacity="0.9773"/>
<stop offset="0.6663" stop-color="#ED582A" stop-opacity="0.3337"/>
<stop offset="1" stop-color="#E74939" stop-opacity="0"/>
</linearGradient>
<linearGradient id="paint6_linear_49_82" x1="310.826" y1="368.782" x2="304.604" y2="487.357" gradientUnits="userSpaceOnUse">
<stop stop-color="#FFBC47"/>
<stop offset="0.1869" stop-color="#FFB137" stop-opacity="0.8131"/>
<stop offset="0.7223" stop-color="#FF940F" stop-opacity="0.2777"/>
<stop offset="1" stop-color="#FF8900" stop-opacity="0"/>
</linearGradient>
<radialGradient id="paint7_radial_49_82" cx="0" cy="0" r="1" gradientUnits="userSpaceOnUse" gradientTransform="translate(311.621 401.257) rotate(179.863) scale(67.6099 69.6892)">
<stop offset="0.00134333" stop-color="#FFBC47"/>
<stop offset="0.2941" stop-color="#FFBF4B" stop-opacity="0.7068"/>
<stop offset="0.5624" stop-color="#FEC656" stop-opacity="0.4382"/>
<stop offset="0.8201" stop-color="#FCD368" stop-opacity="0.1801"/>
<stop offset="1" stop-color="#FBE07A" stop-opacity="0"/>
</radialGradient>
<radialGradient id="paint8_radial_49_82" cx="0" cy="0" r="1" gradientUnits="userSpaceOnUse" gradientTransform="translate(311.631 404.787) rotate(179.863) scale(65.5266 67.5417)">
<stop offset="0.00134333" stop-color="white"/>
<stop offset="1" stop-color="white" stop-opacity="0"/>
</radialGradient>
<radialGradient id="paint9_radial_49_82" cx="0" cy="0" r="1" gradientUnits="userSpaceOnUse" gradientTransform="translate(340.325 388.669) rotate(179.863) scale(80.4947 119.025)">
<stop offset="0.00134333" stop-color="#FFED1C" stop-opacity="0.6"/>
<stop offset="0.9477" stop-color="#FFED1C" stop-opacity="0.0264782"/>
<stop offset="0.9914" stop-color="#FFED1C" stop-opacity="0"/>
</radialGradient>
<radialGradient id="paint10_radial_49_82" cx="0" cy="0" r="1" gradientUnits="userSpaceOnUse" gradientTransform="translate(311.953 403.706) rotate(-87.8645) scale(32.2999 20.6626)">
<stop offset="0.00134333" stop-color="white"/>
<stop offset="1" stop-color="white" stop-opacity="0"/>
</radialGradient>
<radialGradient id="paint11_radial_49_82" cx="0" cy="0" r="1" gradientUnits="userSpaceOnUse" gradientTransform="translate(297.902 544.741) rotate(179.863) scale(28.8767 36.6688)">
<stop offset="0.00134333" stop-color="#FFED1C"/>
<stop offset="0.1997" stop-color="#FFEE2B" stop-opacity="0.8013"/>
<stop offset="0.5839" stop-color="#FFF254" stop-opacity="0.4167"/>
<stop offset="1" stop-color="#FFF686" stop-opacity="0"/>
</radialGradient>
<radialGradient id="paint12_radial_49_82" cx="0" cy="0" r="1" gradientUnits="userSpaceOnUse" gradientTransform="translate(345.547 526.431) rotate(117.461) scale(27.9267 5.65061)">
<stop offset="0.00134333" stop-color="#FFED1C" stop-opacity="0.6"/>
<stop offset="0.9477" stop-color="#FFED1C" stop-opacity="0.0264782"/>
<stop offset="0.9914" stop-color="#FFED1C" stop-opacity="0"/>
</radialGradient>
<radialGradient id="paint13_radial_49_82" cx="0" cy="0" r="1" gradientUnits="userSpaceOnUse" gradientTransform="translate(340.882 549.686) rotate(-86.1563) scale(26.6547 8.46871)">
<stop offset="0.00134333" stop-color="#FFED1C"/>
<stop offset="0.1997" stop-color="#FFEE2B" stop-opacity="0.8013"/>
<stop offset="0.5839" stop-color="#FFF254" stop-opacity="0.4167"/>
<stop offset="1" stop-color="#FFF686" stop-opacity="0"/>
</radialGradient>
<radialGradient id="paint14_radial_49_82" cx="0" cy="0" r="1" gradientUnits="userSpaceOnUse" gradientTransform="translate(304.327 549.431) rotate(179.863) scale(90.104 114.418)">
<stop offset="0.00134333" stop-color="#FF4C00"/>
<stop offset="0.135" stop-color="#FF5B0C" stop-opacity="0.8661"/>
<stop offset="0.3941" stop-color="#FF842C" stop-opacity="0.6067"/>
<stop offset="0.7491" stop-color="#FFC45F" stop-opacity="0.2512"/>
<stop offset="1" stop-color="#FFF686" stop-opacity="0"/>
</radialGradient>
<radialGradient id="paint15_radial_49_82" cx="0" cy="0" r="1" gradientUnits="userSpaceOnUse" gradientTransform="translate(263.124 456.833) rotate(179.863) scale(47.8257 60.7311)">
<stop offset="0.00134333" stop-color="#FFED1C"/>
<stop offset="0.1997" stop-color="#FFEE2B" stop-opacity="0.8013"/>
<stop offset="0.5839" stop-color="#FFF254" stop-opacity="0.4167"/>
<stop offset="1" stop-color="#FFF686" stop-opacity="0"/>
</radialGradient>
<radialGradient id="paint16_radial_49_82" cx="0" cy="0" r="1" gradientUnits="userSpaceOnUse" gradientTransform="translate(314.813 408.02) rotate(179.863) scale(100.009 126.996)">
<stop offset="0.00134333" stop-color="#FFED1C"/>
<stop offset="0.1997" stop-color="#FFEE2B" stop-opacity="0.8013"/>
<stop offset="0.5839" stop-color="#FFF254" stop-opacity="0.4167"/>
<stop offset="1" stop-color="#FFF686" stop-opacity="0"/>
</radialGradient>
<linearGradient id="paint17_linear_49_82" x1="380.413" y1="437.399" x2="374.021" y2="278.135" gradientUnits="userSpaceOnUse">
<stop stop-color="#BD2719"/>
<stop offset="0.2151" stop-color="#D41A10"/>
<stop offset="0.5049" stop-color="#EC0C07"/>
<stop offset="0.774" stop-color="#FA0302"/>
<stop offset="1" stop-color="#FF0000"/>
</linearGradient>
<linearGradient id="paint18_linear_49_82" x1="386.045" y1="354.106" x2="385.73" y2="401.762" gradientUnits="userSpaceOnUse">
<stop stop-color="#FC8D41"/>
<stop offset="0.0900324" stop-color="#FC7837"/>
<stop offset="0.294" stop-color="#FD4D24"/>
<stop offset="0.4922" stop-color="#FE2C14"/>
<stop offset="0.6802" stop-color="#FF1409"/>
<stop offset="0.854" stop-color="#FF0502"/>
<stop offset="1" stop-color="#FF0000"/>
</linearGradient>
<radialGradient id="paint19_radial_49_82" cx="0" cy="0" r="1" gradientUnits="userSpaceOnUse" gradientTransform="translate(358.925 438.068) rotate(-0.137241) scale(146.624)">
<stop offset="0.00134333" stop-color="#FFED1C"/>
<stop offset="0.1997" stop-color="#FFEE2B" stop-opacity="0.8013"/>
<stop offset="0.5839" stop-color="#FFF254" stop-opacity="0.4167"/>
<stop offset="1" stop-color="#FFF686" stop-opacity="0"/>
</radialGradient>
<linearGradient id="paint20_linear_49_82" x1="361.582" y1="326.182" x2="342.075" y2="69.7787" gradientUnits="userSpaceOnUse">
<stop stop-color="#BD2719"/>
<stop offset="0.2151" stop-color="#D41A10"/>
<stop offset="0.5049" stop-color="#EC0C07"/>
<stop offset="0.774" stop-color="#FA0302"/>
<stop offset="1" stop-color="#FF0000"/>
</linearGradient>
<linearGradient id="paint21_linear_49_82" x1="210.697" y1="415.595" x2="247.292" y2="307.62" gradientUnits="userSpaceOnUse">
<stop stop-color="#BD2719"/>
<stop offset="0.2151" stop-color="#D41A10"/>
<stop offset="0.5049" stop-color="#EC0C07"/>
<stop offset="0.774" stop-color="#FA0302"/>
<stop offset="1" stop-color="#FF0000"/>
</linearGradient>
<linearGradient id="paint22_linear_49_82" x1="230.893" y1="353.264" x2="235.305" y2="403.055" gradientUnits="userSpaceOnUse">
<stop stop-color="#FC8D41"/>
<stop offset="0.0900324" stop-color="#FC7837"/>
<stop offset="0.294" stop-color="#FD4D24"/>
<stop offset="0.4922" stop-color="#FE2C14"/>
<stop offset="0.6802" stop-color="#FF1409"/>
<stop offset="0.854" stop-color="#FF0502"/>
<stop offset="1" stop-color="#FF0000"/>
</linearGradient>
<radialGradient id="paint23_radial_49_82" cx="0" cy="0" r="1" gradientUnits="userSpaceOnUse" gradientTransform="translate(307.329 407.276) rotate(-0.137243) scale(157.709)">
<stop offset="0.00134333" stop-color="#FFED1C"/>
<stop offset="0.1997" stop-color="#FFEE2B" stop-opacity="0.8013"/>
<stop offset="0.5839" stop-color="#FFF254" stop-opacity="0.4167"/>
<stop offset="1" stop-color="#FFF686" stop-opacity="0"/>
</radialGradient>
<linearGradient id="paint24_linear_49_82" x1="274.48" y1="279.393" x2="163.513" y2="401.835" gradientUnits="userSpaceOnUse">
<stop stop-color="#BD2719"/>
<stop offset="0.2151" stop-color="#D41A10"/>
<stop offset="0.5049" stop-color="#EC0C07"/>
<stop offset="0.774" stop-color="#FA0302"/>
<stop offset="1" stop-color="#FF0000"/>
</linearGradient>
<linearGradient id="paint25_linear_49_82" x1="266.451" y1="187.149" x2="360.393" y2="186.924" gradientUnits="userSpaceOnUse">
<stop stop-color="#BBCACC"/>
<stop offset="0.3717" stop-color="white"/>
<stop offset="1" stop-color="#99AFB3"/>
</linearGradient>
<linearGradient id="paint26_linear_49_82" x1="342.689" y1="104.167" x2="283.915" y2="96.693" gradientUnits="userSpaceOnUse">
<stop stop-color="#008EE6"/>
<stop offset="0.688" stop-color="#80DAFE"/>
<stop offset="0.7325" stop-color="#76D5FB"/>
<stop offset="0.8071" stop-color="#5CC8F3"/>
<stop offset="0.9026" stop-color="#32B2E6"/>
<stop offset="1" stop-color="#0099D6"/>
</linearGradient>
<linearGradient id="paint27_linear_49_82" x1="358.07" y1="298.981" x2="251.6" y2="299.523" gradientUnits="userSpaceOnUse">
<stop stop-color="#008EE6"/>
<stop offset="0.688" stop-color="#80DAFE"/>
<stop offset="0.7325" stop-color="#76D5FB"/>
<stop offset="0.8071" stop-color="#5CC8F3"/>
<stop offset="0.9026" stop-color="#32B2E6"/>
<stop offset="1" stop-color="#0099D6"/>
</linearGradient>
<radialGradient id="paint28_radial_49_82" cx="0" cy="0" r="1" gradientUnits="userSpaceOnUse" gradientTransform="translate(339.567 352.869) rotate(-0.137245) scale(71.8285 131.467)">
<stop stop-opacity="0.75"/>
<stop offset="1" stop-opacity="0"/>
</radialGradient>
<radialGradient id="paint29_radial_49_82" cx="0" cy="0" r="1" gradientUnits="userSpaceOnUse" gradientTransform="translate(386.622 281.6) rotate(-0.13725) scale(71.8285 131.467)">
<stop stop-opacity="0.75"/>
<stop offset="1" stop-opacity="0"/>
</radialGradient>
<linearGradient id="paint30_linear_49_82" x1="274.697" y1="353.925" x2="352.165" y2="364.221" gradientUnits="userSpaceOnUse">
<stop/>
<stop offset="0.1962" stop-color="#4D4D4C"/>
<stop offset="0.7655"/>
</linearGradient>
<linearGradient id="paint31_linear_49_82" x1="274.697" y1="353.925" x2="352.165" y2="364.221" gradientUnits="userSpaceOnUse">
<stop stop-opacity="0"/>
<stop offset="0.1975" stop-color="#CFDCDE" stop-opacity="0.5"/>
<stop offset="0.7655" stop-opacity="0"/>
</linearGradient>
<linearGradient id="paint32_linear_49_82" x1="240.007" y1="179.481" x2="334.174" y2="120.008" gradientUnits="userSpaceOnUse">
<stop stop-color="#BBCACC"/>
<stop offset="0.3717" stop-color="white"/>
<stop offset="1" stop-color="#99AFB3"/>
</linearGradient>
<radialGradient id="paint33_radial_49_82" cx="0" cy="0" r="1" gradientUnits="userSpaceOnUse" gradientTransform="translate(359.164 252.599) rotate(-0.903042) scale(46.344 150.077)">
<stop stop-color="#440063" stop-opacity="0.75"/>
<stop offset="1" stop-color="#420061" stop-opacity="0"/>
</radialGradient>
<linearGradient id="paint34_linear_49_82" x1="320.834" y1="407.926" x2="351.827" y2="262.739" gradientUnits="userSpaceOnUse">
<stop stop-color="#BD2719"/>
<stop offset="0.2151" stop-color="#D41A10"/>
<stop offset="0.5049" stop-color="#EC0C07"/>
<stop offset="0.774" stop-color="#FA0302"/>
<stop offset="1" stop-color="#FF0000"/>
</linearGradient>
<linearGradient id="paint35_linear_49_82" x1="309.542" y1="425.285" x2="320.208" y2="345.111" gradientUnits="userSpaceOnUse">
<stop stop-color="#BD2719"/>
<stop offset="0.2151" stop-color="#D41A10"/>
<stop offset="0.5049" stop-color="#EC0C07"/>
<stop offset="0.774" stop-color="#FA0302"/>
<stop offset="1" stop-color="#FF0000"/>
</linearGradient>
<linearGradient id="paint36_linear_49_82" x1="323.485" y1="352.803" x2="321.888" y2="403.181" gradientUnits="userSpaceOnUse">
<stop stop-color="#FC8D41"/>
<stop offset="0.0900324" stop-color="#FC7837"/>
<stop offset="0.294" stop-color="#FD4D24"/>
<stop offset="0.4922" stop-color="#FE2C14"/>
<stop offset="0.6802" stop-color="#FF1409"/>
<stop offset="0.854" stop-color="#FF0502"/>
<stop offset="1" stop-color="#FF0000"/>
</linearGradient>
<linearGradient id="paint37_linear_49_82" x1="339.539" y1="370.481" x2="281.789" y2="251.421" gradientUnits="userSpaceOnUse">
<stop stop-color="#BD2719"/>
<stop offset="0.2151" stop-color="#D41A10"/>
<stop offset="0.5049" stop-color="#EC0C07"/>
<stop offset="0.774" stop-color="#FA0302"/>
<stop offset="1" stop-color="#FF0000"/>
</linearGradient>
<linearGradient id="paint38_linear_49_82" x1="320.834" y1="407.926" x2="351.827" y2="262.739" gradientUnits="userSpaceOnUse">
<stop stop-color="#BD2719"/>
<stop offset="0.2151" stop-color="#D41A10"/>
<stop offset="0.5049" stop-color="#EC0C07"/>
<stop offset="0.774" stop-color="#FA0302"/>
<stop offset="1" stop-color="#FF0000"/>
</linearGradient>
<radialGradient id="paint39_radial_49_82" cx="0" cy="0" r="1" gradientUnits="userSpaceOnUse" gradientTransform="translate(312.322 400.978) rotate(-84.1871) scale(110.503 37.0564)">
<stop offset="0.00134333" stop-color="#FFED1C"/>
<stop offset="0.1997" stop-color="#FFEE2B" stop-opacity="0.8013"/>
<stop offset="0.5839" stop-color="#FFF254" stop-opacity="0.4167"/>
<stop offset="1" stop-color="#FFF686" stop-opacity="0"/>
</radialGradient>
<radialGradient id="paint40_radial_49_82" cx="0" cy="0" r="1" gradientUnits="userSpaceOnUse" gradientTransform="translate(282.992 222.018) rotate(-0.903042) scale(46.344 150.077)">
<stop stop-color="white" stop-opacity="0.5"/>
<stop offset="1" stop-color="white" stop-opacity="0"/>
</radialGradient>
<radialGradient id="paint41_radial_49_82" cx="0" cy="0" r="1" gradientUnits="userSpaceOnUse" gradientTransform="translate(350.901 304.094) rotate(-1.27284) scale(11.2524 54.0294)">
<stop stop-color="#440063" stop-opacity="0.75"/>
<stop offset="1" stop-color="#420061" stop-opacity="0"/>
</radialGradient>
<linearGradient id="paint42_linear_49_82" x1="308.794" y1="222.216" x2="280.189" y2="144.589" gradientUnits="userSpaceOnUse">
<stop stop-color="#BD2719"/>
<stop offset="0.2151" stop-color="#D41A10"/>
<stop offset="0.5049" stop-color="#EC0C07"/>
<stop offset="0.774" stop-color="#FA0302"/>
<stop offset="1" stop-color="#FF0000"/>
</linearGradient>
<linearGradient id="paint43_linear_49_82" x1="275.082" y1="153.627" x2="306.346" y2="211.511" gradientUnits="userSpaceOnUse">
<stop stop-color="#FC8D41"/>
<stop offset="0.0900324" stop-color="#FC7837"/>
<stop offset="0.294" stop-color="#FD4D24"/>
<stop offset="0.4922" stop-color="#FE2C14"/>
<stop offset="0.6802" stop-color="#FF1409"/>
<stop offset="0.854" stop-color="#FF0502"/>
<stop offset="1" stop-color="#FF0000"/>
</linearGradient>
<radialGradient id="paint44_radial_49_82" cx="0" cy="0" r="1" gradientUnits="userSpaceOnUse" gradientTransform="translate(284.099 189.772) rotate(-0.141254) scale(61.2809 61.2766)">
<stop stop-color="#512D00"/>
<stop offset="1"/>
</radialGradient>
<radialGradient id="paint45_radial_49_82" cx="0" cy="0" r="1" gradientUnits="userSpaceOnUse" gradientTransform="translate(283.916 172.758) rotate(-45.1372) scale(53.7635 53.7635)">
<stop offset="0.4873" stop-color="#F5CBC0" stop-opacity="0"/>
<stop offset="1" stop-color="#E67E62"/>
</radialGradient>
<linearGradient id="paint46_linear_49_82" x1="275.047" y1="170.956" x2="247.855" y2="140.663" gradientUnits="userSpaceOnUse">
<stop stop-color="#BD2719"/>
<stop offset="0.0422031" stop-color="#B42717"/>
<stop offset="0.257" stop-color="#89250F"/>
<stop offset="0.4654" stop-color="#682408"/>
<stop offset="0.6634" stop-color="#502304"/>
<stop offset="0.8464" stop-color="#412201"/>
<stop offset="1" stop-color="#3C2200"/>
</linearGradient>
<radialGradient id="paint47_radial_49_82" cx="0" cy="0" r="1" gradientUnits="userSpaceOnUse" gradientTransform="translate(221.081 217.231) rotate(-45.1372) scale(72.905 72.905)">
<stop stop-color="white" stop-opacity="0.5"/>
<stop offset="1" stop-color="white" stop-opacity="0"/>
</radialGradient>
<clipPath id="clip0_49_82">
<rect width="443.845" height="443.845" fill="white" transform="translate(0 314.597) rotate(-45.1372)"/>
</clipPath>
</defs>
</svg>
