<?xml version="1.0" encoding="iso-8859-1"?>
<!-- Uploaded to: SVG Repo, www.svgrepo.com, Generator: SVG Repo Mixer Tools -->
<svg height="800px" width="800px" version="1.1" id="Layer_1" xmlns="http://www.w3.org/2000/svg" xmlns:xlink="http://www.w3.org/1999/xlink" 
	 viewBox="0 0 512 512" xml:space="preserve">
<g>
	<path style="fill:#578CAD;" d="M98.171,473.608c-1.139,0-2.294-0.232-3.401-0.722c-4.258-1.881-6.186-6.857-4.305-11.116
		l30.56-69.188c1.88-4.258,6.857-6.187,11.116-4.305c4.258,1.881,6.186,6.858,4.305,11.116l-30.56,69.188
		C104.494,471.733,101.408,473.608,98.171,473.608z"/>
	<path style="fill:#578CAD;" d="M413.824,473.608c-3.237,0-6.323-1.875-7.714-5.026l-30.558-69.188
		c-1.881-4.258,0.046-9.236,4.305-11.116c4.257-1.885,9.236,0.046,11.116,4.305l30.558,69.188c1.881,4.258-0.046,9.236-4.305,11.116
		C416.118,473.376,414.963,473.608,413.824,473.608z"/>
	<path style="fill:#578CAD;" d="M256.001,473.607c-4.655,0-8.429-3.773-8.429-8.429v-69.189c0-4.656,3.774-8.429,8.429-8.429
		c4.655,0,8.429,3.773,8.429,8.429v69.189C264.43,469.833,260.656,473.607,256.001,473.607z"/>
</g>
<path style="fill:#3A5D74;" d="M128.001,372.925c-11.466,0-20.757,9.292-20.757,20.757v4.612c0,11.463,9.291,20.757,20.757,20.757
	H384c11.463,0,20.757-9.295,20.757-20.757v-4.612c0-11.465-9.295-20.757-20.757-20.757H128.001"/>
<path style="opacity:0.1;fill:#231F20;enable-background:new    ;" d="M125.602,398.296v-4.612c0-11.465,9.291-20.757,20.757-20.757
	h-18.358c-11.466,0-20.757,9.292-20.757,20.757v4.612c0,11.463,9.291,20.757,20.757,20.757h18.358
	C134.892,419.052,125.602,409.758,125.602,398.296z"/>
<path style="fill:#CAE9F7;" d="M256.001,154.517c-4.655,0-8.429-3.773-8.429-8.429V70.276c0-4.656,3.774-8.429,8.429-8.429
	c4.655,0,8.429,3.773,8.429,8.429v75.812C264.43,150.745,260.656,154.517,256.001,154.517z"/>
<path style="fill:#FF4D30;" d="M279.639,62.033c0,13.056-10.583,23.639-23.638,23.639c-13.059,0-23.64-10.583-23.64-23.639
	c0-13.055,10.581-23.64,23.64-23.64C269.056,38.393,279.639,48.978,279.639,62.033z"/>
<path style="fill:#90C8EC;" d="M102.372,275.397h307.255c-12.063-73.969-76.247-130.432-153.626-130.432
	C178.619,144.964,114.435,201.428,102.372,275.397z"/>
<path style="fill:#3A5D74;" d="M311.928,233.306H200.071c-11.461,0-20.756,9.293-20.756,20.757v21.334h153.37v-21.334
	C332.685,242.599,323.392,233.306,311.928,233.306z"/>
<g>
	<path style="opacity:0.1;fill:#231F20;enable-background:new    ;" d="M217.305,233.306h-17.234
		c-11.461,0-20.756,9.293-20.756,20.757v21.334h17.234v-21.334C196.549,242.599,205.842,233.306,217.305,233.306z"/>
	<path style="opacity:0.1;fill:#231F20;enable-background:new    ;" d="M250.718,62.033c0-9.8,5.963-18.207,14.46-21.791
		c-2.822-1.189-5.923-1.85-9.178-1.85c-13.059,0-23.64,10.585-23.64,23.64c0,13.056,10.581,23.639,23.64,23.639
		c3.255,0,6.356-0.659,9.178-1.85C256.682,80.242,250.718,71.835,250.718,62.033z"/>
	<path style="opacity:0.1;fill:#231F20;enable-background:new    ;" d="M265.179,145.242c-3.038-0.176-6.097-0.276-9.179-0.276
		c-77.382,0-141.566,56.462-153.628,130.432h18.358C132.313,204.373,191.949,149.501,265.179,145.242z"/>
</g>
<path style="fill:#578CAD;" d="M332.869,374.049h158.374c11.463,0,20.757-9.292,20.757-20.756v-31.753
	c0-26.303-21.325-47.627-47.628-47.627H47.627C21.324,273.913,0,295.237,0,321.54v31.753c0,11.464,9.293,20.756,20.757,20.756
	h312.112"/>
<path style="opacity:0.1;fill:#231F20;enable-background:new    ;" d="M18.358,353.294V321.54c0-26.303,21.324-47.627,47.627-47.627
	H47.627C21.324,273.913,0,295.237,0,321.54v31.753c0,11.464,9.293,20.756,20.757,20.756h18.358
	C27.651,374.049,18.358,364.758,18.358,353.294z"/>
<path style="fill:#FF9737;" d="M461.837,332.411H50.163c-4.656,0-8.429-3.773-8.429-8.429c0-4.656,3.773-8.429,8.429-8.429h411.674
	c4.656,0,8.429,3.773,8.429,8.429C470.266,328.638,466.492,332.411,461.837,332.411z"/>
</svg>